<svg width="1113" height="175" viewBox="0 0 1113 175" fill="none" xmlns="http://www.w3.org/2000/svg">
<path fill-rule="evenodd" clip-rule="evenodd" d="M167.073 0H135.089V70.9165H167.073V47.6183H237.785V70.9165H269.769V0H237.785V23.2982H167.073V0ZM409.456 0H277.841V70.9165H409.456V52.7275H309.825V44.6549H409.456V26.4659H309.825V18.3933H409.456V0ZM523.801 0H417.528V70.9165H449.512V56.7127H523.801C528.297 56.7127 532.282 55.8952 535.756 54.2603C539.231 52.6253 542.194 50.4794 544.647 47.9248C547.099 45.268 548.938 42.2024 550.165 38.8303C551.493 35.356 552.106 31.8817 552.106 28.4075C552.106 24.9332 551.493 21.3567 550.165 17.9846C548.836 14.6125 546.997 11.6491 544.647 8.99229C542.194 6.33548 539.231 4.0874 535.756 2.55463C532.282 0.817481 528.297 0 523.801 0ZM449.512 32.3927V24.3201H515.728C518.692 24.3201 520.224 25.6485 520.224 28.4075C520.224 31.1665 518.692 32.4949 515.728 32.4949H449.512V32.3927ZM688.83 0H557.215V70.9165H688.83V52.7275H589.199V44.6549H688.83V26.4659H589.199V18.3933H688.83V0ZM728.886 0H696.902V70.9165H818.4V46.5964H728.886V0ZM958.087 0H826.473V70.9165H958.087V52.7275H858.457V44.6549H958.087V26.4659H858.457V18.3933H958.087V0ZM1019.6 70.9165H1055.67L1113 0H1076.93L1037.59 48.6401L998.144 0H962.073L1019.5 70.9165H1019.6ZM0 128.14H51.1947V174.737H83.1787V128.14H134.578V103.82H0V128.14ZM274.367 103.82H142.753V174.737H274.367V156.548H174.737V148.475H274.367V130.286H174.737V122.213H274.367V104.024V103.82ZM393.208 174.737H429.28L371.852 103.82H335.78L278.352 174.737H314.424L322.598 164.62H384.931L393.106 174.737H393.208ZM353.867 126.096L368.684 144.285H339.152L353.969 126.096H353.867ZM476.08 103.82H433.367V174.737H465.351V135.191L497.437 174.737H533.508L567.229 133.147V174.737H599.213V103.82H554.865L515.524 152.46L476.183 103.82H476.08Z" fill="url(#paint0_linear_49_9)"/>
<path d="M606.98 173.51C606.264 173.51 605.651 173.306 605.14 172.999C604.629 172.693 604.221 172.182 603.914 171.569C603.608 170.955 603.505 170.24 603.505 169.423C603.505 168.605 603.608 167.89 603.914 167.277C604.221 166.664 604.629 166.153 605.14 165.846C605.651 165.54 606.264 165.335 606.98 165.335C607.695 165.335 608.512 165.54 609.126 166.051C609.636 166.562 609.943 167.175 610.147 167.89L609.534 168.094C609.432 167.481 609.126 166.97 608.717 166.562C608.308 166.153 607.695 165.948 607.082 165.948C606.469 165.948 606.06 166.051 605.651 166.357C605.242 166.664 604.936 167.072 604.732 167.583C604.527 168.094 604.425 168.707 604.425 169.423C604.425 170.138 604.527 170.751 604.732 171.262C604.936 171.773 605.242 172.182 605.651 172.488C606.06 172.795 606.571 172.897 607.082 172.897C607.593 172.897 608.41 172.693 608.921 172.182C609.33 171.671 609.636 170.955 609.636 169.934H606.775V169.321H610.25V171.262V173.306H609.739V171.875C609.432 172.386 609.126 172.795 608.615 172.999C608.206 173.306 607.593 173.408 606.98 173.408V173.51ZM611.578 169.423V165.54H614.337C615.257 165.54 615.972 165.744 616.381 166.153C616.892 166.562 617.096 167.072 617.096 167.686C617.096 168.299 616.994 168.605 616.687 168.912C616.483 169.218 616.074 169.423 615.563 169.627C615.972 169.729 616.278 169.934 616.483 170.342C616.687 170.649 616.789 171.058 616.789 171.671C616.789 172.182 616.789 172.59 616.892 172.897C616.892 173.204 616.892 173.306 617.096 173.51H616.381C616.381 173.408 616.381 173.204 616.279 172.999C616.279 172.795 616.279 172.386 616.279 171.773C616.279 171.262 616.176 170.955 615.972 170.751C615.87 170.547 615.665 170.342 615.359 170.24C615.052 170.24 614.746 170.138 614.337 170.138H612.293V173.51H611.578V169.627V169.423ZM614.337 169.321C614.95 169.321 615.563 169.218 615.87 168.912C616.278 168.605 616.381 168.196 616.381 167.686C616.381 167.175 616.176 166.766 615.87 166.562C615.563 166.255 615.052 166.153 614.337 166.153H612.191V169.423H614.235L614.337 169.321ZM618.629 169.423V165.54H619.344V169.423V173.306H618.629V169.423ZM621.081 169.423V165.54H623.942C624.76 165.54 625.475 165.744 625.986 166.153C626.497 166.562 626.701 167.072 626.701 167.788C626.701 168.503 626.497 169.116 625.986 169.525C625.475 169.934 624.862 170.138 623.942 170.138H621.796V173.408H621.081V169.525V169.423ZM623.84 169.525C624.453 169.525 624.964 169.423 625.373 169.116C625.782 168.81 625.884 168.401 625.884 167.89C625.884 167.379 625.68 166.97 625.373 166.664C624.964 166.357 624.555 166.255 623.84 166.255H621.694V169.627H623.84V169.525ZM630.482 169.423V165.54H632.628C635.285 165.54 636.613 166.868 636.613 169.423C636.613 171.977 636.307 171.773 635.591 172.386C634.978 172.999 633.957 173.408 632.628 173.408H630.482V169.525V169.423ZM631.095 172.693H632.628C633.752 172.693 634.57 172.386 635.081 171.875C635.591 171.364 635.898 170.445 635.898 169.321C635.898 167.175 634.774 166.051 632.628 166.051H631.095V169.321V172.59V172.693ZM637.84 169.423V165.54H643.051V166.153H638.555V169.014H642.847V169.627H638.555V172.795H643.153V173.408H637.84V169.525V169.423ZM644.379 169.423V165.54H647.241C648.058 165.54 648.773 165.744 649.284 166.153C649.795 166.562 650 167.072 650 167.788C650 168.503 649.795 169.116 649.284 169.525C648.773 169.934 648.16 170.138 647.241 170.138H645.095V173.408H644.379V169.525V169.423ZM647.138 169.525C647.751 169.525 648.262 169.423 648.671 169.116C649.08 168.81 649.182 168.401 649.182 167.89C649.182 167.379 648.978 166.97 648.671 166.664C648.262 166.357 647.854 166.255 647.138 166.255H644.993V169.627H647.138V169.525ZM650.817 169.423L652.35 165.54H653.065L654.598 169.423L656.233 173.306H655.518L654.598 171.058H652.759H650.919L650.102 173.306H649.386L650.919 169.423H650.817ZM652.656 170.445H654.291L652.656 166.255L651.021 170.445H652.656ZM657.153 169.423V165.54H659.911C660.831 165.54 661.546 165.744 661.955 166.153C662.466 166.562 662.671 167.072 662.671 167.686C662.671 168.299 662.568 168.605 662.262 168.912C662.057 169.218 661.649 169.423 661.138 169.627C661.546 169.729 661.853 169.934 662.057 170.342C662.262 170.649 662.364 171.058 662.364 171.671C662.364 172.182 662.364 172.59 662.466 172.897C662.466 173.204 662.466 173.306 662.671 173.51H661.955C661.955 173.408 661.955 173.204 661.853 172.999C661.853 172.795 661.853 172.386 661.853 171.773C661.853 171.262 661.751 170.955 661.546 170.751C661.444 170.547 661.24 170.342 660.933 170.24C660.627 170.24 660.32 170.138 659.911 170.138H657.868V173.51H657.153V169.627V169.423ZM659.911 169.321C660.525 169.321 661.138 169.218 661.444 168.912C661.853 168.605 661.955 168.196 661.955 167.686C661.955 167.175 661.751 166.766 661.444 166.562C661.138 166.255 660.627 166.153 659.911 166.153H657.766V169.423H659.809L659.911 169.321ZM665.838 169.423V166.153H663.284V165.54H669.006V166.153H666.451V169.423V173.306H665.736V169.423H665.838ZM670.028 169.423V165.437H670.845L672.48 169.525L673.706 172.488L674.933 169.525L676.465 165.437H677.385V169.321V173.204H676.67V169.423V166.562L675.444 169.627L674.013 173.101H673.298L671.867 169.627L670.641 166.562V173.204H670.028V169.321V169.423ZM679.122 169.423V165.54H684.334V166.153H679.838V169.014H684.129V169.627H679.838V172.795H684.436V173.408H679.122V169.525V169.423ZM685.662 169.423V165.54H686.48L688.932 169.423L690.874 172.386V165.642H691.589V169.525V173.408H690.771L688.523 169.831L686.377 166.664V173.408H685.662V169.525V169.423ZM695.063 169.423V166.153H692.509V165.54H698.231V166.153H695.676V169.423V173.306H694.961V169.423H695.063Z" fill="white"/>
<path d="M128.038 14.6125V22.1742H99.0176C99.0176 19.7217 96.6674 17.7802 93.9084 17.7802H35.2541C32.3929 17.7802 30.1449 19.7217 30.1449 22.1742C30.1449 24.6266 32.4951 26.5681 35.2541 26.5681H111.075C120.476 26.5681 128.038 33.108 128.038 41.1806V56.304C128.038 64.3766 120.476 70.9165 111.075 70.9165H17.8826C8.5838 70.9165 0.919922 64.3766 0.919922 56.4062V48.7423H29.9405C29.9405 51.2969 32.2907 53.2384 35.0497 53.2384H93.6018C96.7695 53.2384 99.3242 50.786 98.8132 47.9248C98.4045 45.6767 95.9521 44.144 93.3974 44.144H17.9848C8.68599 44.144 1.02211 37.6041 1.02211 29.5315V14.6125C1.02211 6.53985 8.58381 0 17.9848 0H111.075C120.476 0 128.038 6.53985 128.038 14.6125Z" fill="white"/>
<defs>
<linearGradient id="paint0_linear_49_9" x1="2.65681" y1="87.3683" x2="606.571" y2="87.3683" gradientUnits="userSpaceOnUse">
<stop offset="0.5" stop-color="#F5F3F3"/>
<stop offset="1" stop-color="#818181"/>
</linearGradient>
</defs>
</svg>
