<svg width="1113" height="175" viewBox="0 0 1113 175" fill="none" xmlns="http://www.w3.org/2000/svg">
<path fill-rule="evenodd" clip-rule="evenodd" d="M167.073 0H135.089V70.9165H167.073V47.6183H237.785V70.9165H269.769V0H237.785V23.2982H167.073V0ZM409.456 0H277.841V70.9165H409.456V52.7275H309.825V44.6549H409.456V26.4659H309.825V18.3933H409.456V0ZM523.801 0H417.528V70.9165H449.512V56.7127H523.801C528.297 56.7127 532.282 55.8952 535.756 54.2603C539.231 52.6253 542.194 50.4794 544.647 47.9248C547.099 45.268 548.938 42.2024 550.165 38.8303C551.493 35.356 552.106 31.8817 552.106 28.4075C552.106 24.9332 551.493 21.3567 550.165 17.9846C548.836 14.6125 546.997 11.6491 544.647 8.99229C542.194 6.33548 539.231 4.0874 535.756 2.55463C532.282 0.817481 528.297 0 523.801 0ZM449.512 32.3927V24.3201H515.728C518.692 24.3201 520.224 25.6485 520.224 28.4075C520.224 31.1665 518.692 32.4949 515.728 32.4949H449.512V32.3927ZM688.83 0H557.215V70.9165H688.83V52.7275H589.199V44.6549H688.83V26.4659H589.199V18.3933H688.83V0ZM728.886 0H696.902V70.9165H818.4V46.5964H728.886V0ZM958.087 0H826.473V70.9165H958.087V52.7275H858.457V44.6549H958.087V26.4659H858.457V18.3933H958.087V0ZM1019.6 70.9165H1055.67L1113 0H1076.93L1037.59 48.6401L998.144 0H962.073L1019.5 70.9165H1019.6ZM0 128.14H51.1947V174.737H83.1787V128.14H134.578V103.82H0V128.14ZM274.367 103.82H142.753V174.737H274.367V156.548H174.737V148.475H274.367V130.286H174.737V122.213H274.367V104.024V103.82ZM393.208 174.737H429.28L371.852 103.82H335.78L278.352 174.737H314.424L322.598 164.62H384.931L393.106 174.737H393.208ZM353.867 126.096L368.684 144.285H339.152L353.969 126.096H353.867ZM476.08 103.82H433.367V174.737H465.351V135.191L497.437 174.737H533.508L567.229 133.147V174.737H599.213V103.82H554.865L515.524 152.46L476.183 103.82H476.08Z" fill="url(#paint0_linear_49_10)"/>
<path d="M128.038 14.6125V22.1742H99.0176C99.0176 19.7217 96.6674 17.7802 93.9084 17.7802H35.2541C32.3929 17.7802 30.1449 19.7217 30.1449 22.1742C30.1449 24.6266 32.4951 26.5681 35.2541 26.5681H111.075C120.476 26.5681 128.038 33.108 128.038 41.1806V56.304C128.038 64.3766 120.476 70.9165 111.075 70.9165H17.8826C8.5838 70.9165 0.919922 64.3766 0.919922 56.4062V48.7423H29.9405C29.9405 51.2969 32.2907 53.2384 35.0497 53.2384H93.6018C96.7695 53.2384 99.3242 50.786 98.8132 47.9248C98.4045 45.6767 95.9521 44.144 93.3974 44.144H17.9848C8.68599 44.144 1.02211 37.6041 1.02211 29.5315V14.6125C1.02211 6.53985 8.58381 0 17.9848 0H111.075C120.476 0 128.038 6.53985 128.038 14.6125Z" fill="white"/>
<defs>
<linearGradient id="paint0_linear_49_10" x1="2.65681" y1="87.3683" x2="606.571" y2="87.3683" gradientUnits="userSpaceOnUse">
<stop offset="0.5" stop-color="#F5F3F3"/>
<stop offset="1" stop-color="#818181"/>
</linearGradient>
</defs>
</svg>
