<svg width="46" height="46" viewBox="0 0 46 46" fill="none" xmlns="http://www.w3.org/2000/svg">
<path d="M23 0.5C10.58 0.5 0.5 10.58 0.5 23C0.5 35.42 10.58 45.5 23 45.5C35.42 45.5 45.5 35.42 45.5 23C45.5 10.58 35.42 0.5 23 0.5ZM33.44 15.8C33.1025 19.355 31.64 27.995 30.8975 31.9775C30.5825 33.665 29.9525 34.2275 29.3675 34.295C28.0625 34.4075 27.0725 33.44 25.8125 32.6075C23.8325 31.3025 22.7075 30.4925 20.795 29.2325C18.5675 27.77 20.0075 26.96 21.29 25.655C21.6275 25.3175 27.3875 20.075 27.5 19.6025C27.5156 19.5309 27.5136 19.4566 27.4939 19.3861C27.4743 19.3155 27.4378 19.2508 27.3875 19.1975C27.2525 19.085 27.0725 19.13 26.915 19.1525C26.7125 19.1975 23.5625 21.29 17.42 25.43C16.52 26.0375 15.71 26.3525 14.99 26.33C14.18 26.3075 12.65 25.88 11.5025 25.4975C10.085 25.0475 8.9825 24.8 9.0725 24.0125C9.1175 23.6075 9.68 23.2025 10.7375 22.775C17.3075 19.9175 21.6725 18.0275 23.855 17.1275C30.11 14.5175 31.3925 14.0675 32.2475 14.0675C32.4275 14.0675 32.855 14.1125 33.125 14.3375C33.35 14.5175 33.4175 14.765 33.44 14.945C33.4175 15.08 33.4625 15.485 33.44 15.8Z" fill="#B82E2E"/>
</svg>
